<svg xmlns="http://www.w3.org/2000/svg" viewBox="0 0 283.46 283.46"><defs><style>.cls-1{fill:#70a52e;}</style></defs><g id="圖層_2" data-name="圖層 2"><polygon class="cls-1" points="219.14 163.46 117.99 62.31 238.52 46.68 219.14 163.46"/><rect class="cls-1" x="103.22" y="93.1" width="65.23" height="105.04" transform="translate(142.75 -53.4) rotate(45)"/><path class="cls-1" d="M33.66,200.47a13.18,13.18,0,0,1-5.45-3.64q-7.66-7.67.65-16l14.67-14.67L39,161.62l4.52-4.52,4.55,4.55,6.3-6.3,7.42,4-8,8,6.52,6.52-4.52,4.52-6.52-6.52L35.55,185.54Q33,188,32.82,190.05a4.83,4.83,0,0,0,1.74,4,6.7,6.7,0,0,0,3.65,1.9Z"/><path class="cls-1" d="M49.81,190.79q6.64-6.64,14.27-6.7t14.15,6.46q6.15,6.15,6,13.45t-6.6,13.75q-6.49,6.5-14.16,6.61t-14-6.18q-6.18-6.17-6.1-13.63T49.81,190.79Zm5.94,5.69q-4.44,4.44-4.76,9.07a10.4,10.4,0,0,0,3.37,8.33q7.76,7.76,17.32-1.8,4.62-4.62,5-9t-3.34-8.18a10.17,10.17,0,0,0-8.47-3.31Q60.22,192,55.75,196.48Z"/><path class="cls-1" d="M79.69,239.84l-16,16L58,250.13l39.29-39.29,5.72,5.72L98.49,221l.12.12a14.14,14.14,0,0,1,14.16,3.94q5.13,5.15,4.49,11.67t-6.77,12.66q-6.75,6.75-14.14,7.47a15.48,15.48,0,0,1-13-4.86A12.3,12.3,0,0,1,79.81,240Zm7.66-7.76A10.61,10.61,0,0,0,84,239.29a9.71,9.71,0,0,0,11.07,9.85q4.71-.76,9.55-5.6,4.16-4.17,4.61-8.26a8.75,8.75,0,0,0-2.84-7.39,9.61,9.61,0,0,0-7.75-3,12.52,12.52,0,0,0-8.11,4Z"/></g></svg>